<?xml version="1.0" encoding="UTF-8"?>
<svg id="Laag_1" xmlns="http://www.w3.org/2000/svg" version="1.1" viewBox="0 0 841.89 595.28">
  <!-- Generator: Adobe Illustrator 29.0.1, SVG Export Plug-In . SVG Version: 2.1.0 Build 192)  -->
  <defs>
    <style>
      .st0 {
        fill: #344d3a;
      }
    </style>
  </defs>
  <path class="st0" d="M697.79,501.06c.12,13.49-4.26,26.04-11.74,36.18-7.4,12.66-19.29,22.44-33.46,27.07-8.57,4.04-18.13,6.08-27.94,5.68-.28.03-.56.03-.84.04l-36.85.98h-1.42l-20.2-.06h-2.15c-.73-.01-1.49-.06-2.23-.08l-8.13-.47c-106.49,7.07-234.97-48.31-316.14-152.09-53.14-67.93-81.34-134.73-85.43-195.32,0-.03,0-.06,0-.1-.1-.73-.17-1.46-.23-2.2l-5.24-62.21c-.06-.74-.11-1.49-.15-2.22h0v-.33s-.05-1.82-.05-1.82l-.58-20.2-.04-1.42v-36.87c0-.28,0-.56,0-.84-.66-9.8,1.13-19.4,4.93-28.08,4.26-14.29,13.72-26.44,26.18-34.17,9.95-7.74,22.37-12.45,35.86-12.69l34.44-.61c.65-.01,1.31-.01,1.96,0,28.24-1.35,54.6,17.54,61.53,45.99l25.24,103.61c6.34,26-5.41,52.38-27.11,65.73h.04l-29.56,20.46c9.48,33.5,26.07,66.75,53.99,96.59,40.17,42.93,84.26,71.5,127.35,90.9l20.77-31.82v.04c12.78-22.04,38.85-34.48,65.01-28.83l104.23,22.48c28.63,6.17,48.2,32.02,47.61,60.29.03.65.04,1.31.04,1.96l.32,34.44h0Z"/>
</svg>